<svg width="24" height="25" viewBox="0 0 24 25" fill="none" xmlns="http://www.w3.org/2000/svg">
<path d="M12 22.5C17.5228 22.5 22 18.0228 22 12.5C22 6.97715 17.5228 2.5 12 2.5C6.47715 2.5 2 6.97715 2 12.5C2 18.0228 6.47715 22.5 12 22.5Z" stroke="black" stroke-width="1.5"/>
<path d="M7.5 17.5C9.8317 15.0578 14.1432 14.9428 16.5 17.5M14.4951 10C14.4951 11.3807 13.3742 12.5 11.9915 12.5C10.6089 12.5 9.48797 11.3807 9.48797 10C9.48797 8.61929 10.6089 7.5 11.9915 7.5C13.3742 7.5 14.4951 8.61929 14.4951 10Z" stroke="black" stroke-width="1.5" stroke-linecap="round"/>
</svg>
